<?xml version="1.0" encoding="utf-8"?>
<!-- Generator: Adobe Illustrator 25.2.1, SVG Export Plug-In . SVG Version: 6.00 Build 0)  -->
<svg version="1.1" id="Layer_1" xmlns="http://www.w3.org/2000/svg" xmlns:xlink="http://www.w3.org/1999/xlink" x="0px" y="0px"
	 viewBox="0 0 150 150" style="enable-background:new 0 0 150 150;" xml:space="preserve">
<style type="text/css">
	.st0{fill:#027B5B;}
	.st1{fill:#FEFEFE;}
	.st2{fill:#F8DB1C;}
</style>
<path class="st0" d="M149.7,0c0,50,0,100,0,150c-49.9,0-99.8,0-149.7,0c-0.2,0-0.3-0.2-0.3-0.9c0-49.4,0-98.8,0-148.2
	c0-0.2,0-0.3,0-0.5c0-0.3,0-0.4,0.1-0.4C-0.2,0-0.1,0,0,0C49.9,0,99.8,0,149.7,0z"/>
<path class="st0" d="M28.4,34.6c0-0.3,0-0.4,0-0.6c0-7.6,0-15.2,0-22.8c0-0.3-0.1-0.4-0.4-0.4c-6.2,0-12.4,0-18.6,0
	c-0.3,0-0.4,0.1-0.4,0.4C9,32,9,52.7,9,73.5C9,73.8,9.1,74,9.4,74c5.6,0,11.3,0,16.9,0c0.3,0,0.4-0.1,0.4-0.4c0-2.3,0-4.5,0-6.8
	c0-0.1,0-0.3,0-0.4c0.1,0.1,0.1,0.2,0.2,0.3c0.7,1.8,1.6,3.5,3.1,4.8c2.4,2.3,5.4,3.3,8.7,3.5c2.3,0.1,4.5-0.2,6.6-0.9
	c3.4-1.1,6.1-3,7.8-6.3c1.6-3.1,2.7-6.4,3.3-9.8c0.8-4,1-8,0.4-12c-0.4-2.8-1.2-5.6-2.5-8.1c-1.8-3.5-4.4-6.3-7.9-8.2
	c-2.5-1.3-5.2-1.7-8-1.1c-2.8,0.6-5.2,2-7.5,3.7C30.1,32.9,29.3,33.7,28.4,34.6z"/>
<path class="st0" d="M95,93.9c0-0.1,0-0.2,0-0.3c0-4.1,0-8.1,0-12.2c0-0.3-0.1-0.3-0.3-0.4c-3.4-1-6.9-1.7-10.5-2
	c-4.1-0.3-8.1,0-12,1.1c-4.7,1.4-8.7,4-11.8,7.8c-3.8,4.6-5.9,10-6.7,15.8c-0.4,3-0.3,6.1,0,9.1c0.4,3.4,1.1,6.8,2.4,10
	c1.3,3.2,3.2,6.1,5.8,8.4c3.2,2.9,7,4.5,11.3,5.1c3.1,0.4,6.3,0.5,9.5,0.2c2-0.2,4-0.6,5.8-1.4c3.8-1.6,6.6-4.3,8.8-7.7
	c1.6-2.5,2.5-5.3,2.8-8.2c0.3-4.1-0.5-8-2.7-11.6c-2.1-3.4-4.9-6-8.7-7.4c-3.4-1.3-6.9-1.3-10.4-0.6c-2.4,0.4-4.6,1.4-6.5,2.9
	c-0.1,0.1-0.1,0.2-0.2,0.1c-0.1-0.1-0.1-0.2-0.1-0.3c0-0.6,0-1.1,0.1-1.7c0.4-2.9,1.7-5.2,4.2-6.8c1.9-1.1,4-1.6,6.1-1.7
	c3.2-0.2,6.4,0.2,9.5,0.8C92.8,93.2,93.9,93.5,95,93.9z"/>
<path class="st0" d="M42,107.3c0.6-0.4,1.2-0.7,1.7-1c2.5-1.5,4.6-3.3,6.2-5.7c1.3-2.1,2-4.4,1.8-6.9c-0.2-3.2-1.7-5.9-3.9-8.2
	c-2.6-2.8-5.8-4.5-9.4-5.7c-4.5-1.5-9.2-1.7-13.9-1.2C21,79,17.4,80,13.9,81.3c-0.2,0.1-0.3,0.2-0.3,0.4c0,4,0,7.9,0,11.9
	c0,0.3,0.1,0.3,0.3,0.2c0.9-0.3,1.7-0.6,2.6-0.8c3.1-0.9,6.3-1.5,9.5-1.2c1.5,0.1,3,0.5,4.3,1.3c1,0.6,1.8,1.4,2.1,2.6
	c0.4,1.8-0.4,3.2-1.8,4.3c-1.7,1.3-3.7,1.8-5.7,1.9c-1.9,0.1-3.7-0.1-5.5-0.5c-0.5-0.1-0.5-0.1-0.5,0.4c0,3.5,0,7.1,0,10.6
	c0,1,0,1,1,0.8c2.3-0.5,4.5-0.6,6.8-0.2c1.7,0.3,3.3,1,4.6,2.3c1.8,1.8,1.6,4.3-0.4,5.9c-1.4,1.1-3.1,1.5-4.9,1.7
	c-3.2,0.3-6.4-0.3-9.5-1.1c-1.1-0.3-2.3-0.7-3.4-1c0,0.1,0,0.2,0,0.3c0,4.4,0,8.7,0,13.1c0,0.3,0.2,0.4,0.4,0.5
	c1.2,0.3,2.5,0.7,3.7,1c4.9,1.1,9.9,1.6,14.9,1.1c3.8-0.4,7.5-1.3,11-3.1c3.5-1.8,6.3-4.3,8.2-7.7c1.5-2.8,2-5.7,1.2-8.8
	c-0.8-3.1-2.7-5.4-5.3-7.1C45.6,108.7,43.9,107.9,42,107.3z"/>
<path class="st0" d="M120.3,80.1c-5.6,0-11.2,0-16.8,0c-0.6,0-0.6-0.1-0.6,0.5c0,10.1,0,20.2,0,30.2c0,0.1,0,0.2,0,0.2
	c0,0.3,0.1,0.3,0.3,0.2c0.6-0.1,1.2-0.3,1.8-0.4c3.2-0.7,6.4-0.9,9.7-0.3c2,0.4,3.8,1.1,5.2,2.6c1.3,1.4,1.9,3,1.3,4.9
	c-0.5,1.6-1.7,2.7-3.2,3.4c-2.3,1.1-4.7,1.4-7.2,1.3c-2.8-0.1-5.6-0.7-8.3-1.6c-0.3-0.1-0.4-0.1-0.4,0.3c0,4.1,0,8.2,0,12.4
	c0,0.3,0.1,0.4,0.3,0.4c3.1,0.8,6.3,1.5,9.5,1.9c3.9,0.5,7.9,0.7,11.8,0.1c2.8-0.4,5.5-1.1,8-2.5c2.8-1.6,5-3.7,6.5-6.6
	c1.5-2.9,2-6,2-9.2c0-3.1-0.5-6-1.9-8.8c-1.9-3.9-5-6.5-9.2-7.6c-3.1-0.8-6.2-0.8-9.4-0.2c-0.4,0.1-0.4,0-0.4-0.4c0-2.4,0-4.8,0-7.3
	c0-0.4,0.1-0.5,0.5-0.5c5.7,0,11.5,0,17.2,0c0.3,0,0.5-0.1,0.5-0.4c0-4.1,0-8.2,0-12.3c0-0.4-0.1-0.4-0.5-0.4
	C131.6,80.1,126,80.1,120.3,80.1z"/>
<path class="st0" d="M102.3,60.1c-0.2,0-0.3,0.1-0.4,0.1c-3.8,1.3-7.7,2.3-11.8,2.7C88,63,85.9,63,83.8,62.5
	c-2.7-0.7-4.6-2.3-5.2-5.1c-0.1-0.5-0.1-0.5,0.4-0.5c8.1,0,16.3,0,24.4,0c1,0,1,0,1-1c-0.1-3.3,0.2-6.7-0.3-10
	c-0.4-3.1-1.2-6.1-2.8-8.8c-1.7-3-4.1-5.2-7.1-6.7c-2.6-1.3-5.4-1.9-8.3-2c-2.9-0.2-5.7,0-8.6,0.5c-3.2,0.6-6.2,1.6-9,3.3
	c-2.2,1.3-4.1,3-5.5,5.1c-2.3,3.2-3.3,6.8-3.5,10.7c-0.2,3.8,0.1,7.5,1.1,11.2c1.1,3.9,2.9,7.4,5.9,10.2c2,1.8,4.2,3.1,6.7,3.9
	c3,1,6.1,1.3,9.2,1.6c4,0.3,8.1,0.1,12.1-0.7c2.6-0.5,5.1-1.2,7.4-2.3c0.3-0.2,0.4-0.3,0.4-0.7c0-3.2,0-6.5,0-9.7
	C102.3,61,102.3,60.5,102.3,60.1z"/>
<path class="st0" d="M112.1,52.5c0,2.6,0,5.1,0,7.7c0,1.7,0.1,3.4,0.5,5c0.7,2.6,1.9,4.8,3.9,6.6c2.5,2.1,5.5,3,8.7,3.2
	c2.5,0.2,5-0.1,7.5-0.5c2.5-0.5,4.9-1.2,7.3-1.9c0.3-0.1,0.2-0.3,0.2-0.5c0-4.2,0-8.3,0-12.5c0-0.4-0.1-0.4-0.4-0.3
	c-1.1,0.6-2.4,0.9-3.6,0.9c-2.7,0.1-4.9-1.4-4.8-4.6c0.1-4.1,0-8.2,0-12.3c0-0.4,0.1-0.4,0.5-0.4c2.6,0,5.3,0,7.9,0
	c0.3,0,0.5-0.1,0.5-0.4c0-4.1,0-8.2,0-12.3c0-0.4-0.1-0.5-0.5-0.5c-2.6,0-5.3,0-7.9,0c-0.4,0-0.5-0.1-0.5-0.5c0-5.2,0-10.5,0-15.7
	c0-0.5,0-0.6-0.5-0.4c-3.2,1.1-6.3,2.3-9.5,3.4c-3,1.1-6,2.2-9,3.2c-0.3,0.1-0.4,0.3-0.4,0.6c0,2.9,0,5.9,0,8.8
	c0,0.4-0.1,0.5-0.5,0.5c-1.7,0-3.5,0-5.2,0c-0.3,0-0.4,0.1-0.4,0.4c0,4.2,0,8.3,0,12.5c0,0.3,0.1,0.4,0.4,0.4c1.8,0,3.5,0,5.3,0
	c0.4,0,0.5,0.1,0.5,0.4C112.1,46.3,112.1,49.4,112.1,52.5z"/>
<path class="st1" d="M28.4,34.6c0.8-0.9,1.6-1.6,2.5-2.3c2.2-1.8,4.7-3.1,7.5-3.7c2.8-0.6,5.5-0.2,8,1.1c3.5,1.9,6,4.7,7.9,8.2
	c1.4,2.5,2.1,5.3,2.5,8.1c0.6,4,0.4,8.1-0.4,12c-0.7,3.4-1.8,6.7-3.3,9.8c-1.7,3.3-4.3,5.2-7.8,6.3c-2.2,0.7-4.4,1-6.6,0.9
	c-3.3-0.2-6.3-1.2-8.7-3.5c-1.4-1.4-2.4-3-3.1-4.8c0-0.1-0.1-0.2-0.2-0.3c0,0.1,0,0.3,0,0.4c0,2.3,0,4.5,0,6.8
	c0,0.3-0.1,0.4-0.4,0.4c-5.6,0-11.3,0-16.9,0C9.1,74,9,73.8,9,73.5C9,52.7,9,32,9,11.2c0-0.4,0.1-0.4,0.4-0.4c6.2,0,12.4,0,18.6,0
	c0.4,0,0.4,0.1,0.4,0.4c0,7.6,0,15.2,0,22.8C28.4,34.1,28.4,34.3,28.4,34.6z M27.4,50.9c0,2.3,0.2,4,0.8,5.7c0.4,1.2,1,2.3,1.9,3.2
	c1.4,1.3,3,1.3,4.4,0c0.9-0.9,1.5-2.1,1.9-3.3c1.1-3.4,1.1-6.9,0-10.3c-0.4-1.2-1-2.3-1.9-3.2c-1.2-1.1-2.7-1.2-4-0.2
	c-0.6,0.5-1,1-1.4,1.7C27.8,46.7,27.5,49,27.4,50.9z"/>
<path class="st2" d="M95,93.9c-1.1-0.3-2.3-0.6-3.4-0.9c-3.1-0.7-6.3-1.1-9.5-0.8c-2.2,0.2-4.2,0.6-6.1,1.7
	c-2.6,1.5-3.8,3.9-4.2,6.8c-0.1,0.6-0.1,1.1-0.1,1.7c0,0.1,0,0.2,0.1,0.3c0.1,0.1,0.2-0.1,0.2-0.1c1.9-1.6,4.1-2.5,6.5-2.9
	c3.5-0.7,7-0.7,10.4,0.6c3.8,1.5,6.6,4,8.7,7.4c2.1,3.6,3,7.4,2.7,11.6c-0.2,3-1.1,5.7-2.8,8.2c-2.2,3.4-5,6.1-8.8,7.7
	c-1.9,0.8-3.8,1.2-5.8,1.4c-3.2,0.3-6.3,0.2-9.5-0.2c-4.3-0.6-8.1-2.2-11.3-5.1c-2.6-2.3-4.4-5.2-5.8-8.4c-1.3-3.2-2.1-6.5-2.4-10
	c-0.3-3-0.4-6.1,0-9.1c0.8-5.9,2.8-11.2,6.7-15.8c3.2-3.8,7.1-6.4,11.8-7.8c3.9-1.2,7.9-1.5,12-1.1c3.6,0.3,7.1,1,10.5,2
	c0.2,0.1,0.3,0.2,0.3,0.4c0,4.1,0,8.1,0,12.2C95.1,93.7,95.1,93.8,95,93.9z M83.6,117.3c-0.1-2.2-0.7-4.2-2.4-5.8
	c-1.7-1.6-4.2-1.9-6.1-0.9c-2.4,1.4-3.3,3.6-3.6,6.2c-0.1,0.7,0,1.4,0.2,2.1c0.4,1.8,1.2,3.4,2.7,4.5c0.8,0.7,1.8,1.1,2.8,1.1
	c1.7,0.1,3.1-0.5,4.3-1.7C82.9,121.4,83.6,119.4,83.6,117.3z"/>
<path class="st2" d="M42,107.3c1.8,0.6,3.5,1.3,5.1,2.4c2.6,1.8,4.5,4,5.3,7.1c0.8,3.1,0.3,6.1-1.2,8.8c-1.9,3.5-4.7,5.9-8.2,7.7
	c-3.4,1.8-7.1,2.7-11,3.1c-5,0.5-10,0-14.9-1.1c-1.3-0.3-2.5-0.6-3.7-1c-0.2-0.1-0.4-0.1-0.4-0.5c0-4.4,0-8.7,0-13.1
	c0-0.1,0-0.2,0-0.3c1.2,0.3,2.3,0.7,3.4,1c3.1,0.8,6.3,1.4,9.5,1.1c1.8-0.2,3.5-0.5,4.9-1.7c2-1.6,2.2-4,0.4-5.9
	c-1.3-1.3-2.9-1.9-4.6-2.3c-2.3-0.4-4.6-0.3-6.8,0.2c-1,0.2-1,0.2-1-0.8c0-3.5,0-7.1,0-10.6c0-0.5,0-0.5,0.5-0.4
	c1.8,0.4,3.7,0.6,5.5,0.5c2.1-0.1,4.1-0.6,5.7-1.9c1.4-1.1,2.2-2.5,1.8-4.3c-0.3-1.2-1.1-2-2.1-2.6c-1.3-0.8-2.8-1.1-4.3-1.3
	c-3.3-0.3-6.4,0.3-9.5,1.2c-0.9,0.2-1.7,0.5-2.6,0.8c-0.2,0.1-0.3,0-0.3-0.2c0-4,0-7.9,0-11.9c0-0.2,0.1-0.3,0.3-0.4
	c3.5-1.3,7-2.2,10.7-2.7c4.7-0.5,9.4-0.3,13.9,1.2c3.6,1.2,6.8,2.9,9.4,5.7c2.2,2.3,3.6,5,3.9,8.2c0.2,2.5-0.5,4.8-1.8,6.9
	c-1.6,2.4-3.7,4.2-6.2,5.7C43.2,106.7,42.7,107,42,107.3z"/>
<path class="st2" d="M120.3,80.1c5.6,0,11.2,0,16.9,0c0.4,0,0.5,0.1,0.5,0.4c0,4.1,0,8.2,0,12.3c0,0.4-0.1,0.4-0.5,0.4
	c-5.7,0-11.5,0-17.2,0c-0.4,0-0.5,0.1-0.5,0.5c0,2.4,0,4.8,0,7.3c0,0.3,0,0.4,0.4,0.4c3.1-0.6,6.3-0.7,9.4,0.2
	c4.2,1.2,7.3,3.7,9.2,7.6c1.3,2.8,1.8,5.8,1.9,8.8c0,3.2-0.5,6.3-2,9.2c-1.5,2.9-3.7,5.1-6.5,6.6c-2.5,1.4-5.2,2.1-8,2.5
	c-4,0.5-7.9,0.4-11.8-0.1c-3.2-0.4-6.4-1.1-9.5-1.9c-0.2-0.1-0.3-0.1-0.3-0.4c0-4.1,0-8.2,0-12.4c0-0.4,0.1-0.4,0.4-0.3
	c2.7,0.9,5.4,1.5,8.3,1.6c2.5,0.1,5-0.1,7.2-1.3c1.5-0.7,2.7-1.8,3.2-3.4c0.6-1.9,0-3.5-1.3-4.9c-1.4-1.5-3.2-2.2-5.2-2.6
	c-3.2-0.7-6.5-0.4-9.7,0.3c-0.6,0.1-1.2,0.3-1.8,0.4c-0.2,0.1-0.3,0-0.3-0.2c0-0.1,0-0.2,0-0.2c0-10.1,0-20.2,0-30.2
	c0-0.6,0-0.5,0.6-0.5C109.1,80.1,114.7,80.1,120.3,80.1z"/>
<path class="st1" d="M102.3,60.1c0,0.5,0,0.9,0,1.4c0,3.2,0,6.5,0,9.7c0,0.3-0.1,0.5-0.4,0.7c-2.4,1.1-4.9,1.8-7.4,2.3
	c-4,0.8-8,1-12.1,0.7c-3.1-0.2-6.2-0.6-9.2-1.6c-2.5-0.8-4.8-2.1-6.7-3.9c-3-2.8-4.8-6.3-5.9-10.2c-1-3.7-1.3-7.4-1.1-11.2
	c0.2-3.9,1.2-7.5,3.5-10.7c1.5-2.1,3.4-3.8,5.5-5.1c2.8-1.7,5.8-2.7,9-3.3c2.8-0.5,5.7-0.7,8.6-0.5c2.9,0.2,5.7,0.8,8.3,2
	c3.1,1.5,5.4,3.7,7.1,6.7c1.6,2.7,2.4,5.7,2.8,8.8c0.5,3.3,0.2,6.7,0.3,10c0,1,0,1-1,1c-8.1,0-16.3,0-24.4,0c-0.6,0-0.5,0-0.4,0.5
	c0.6,2.8,2.5,4.4,5.2,5.1c2.1,0.6,4.2,0.6,6.3,0.4c4.1-0.4,8-1.4,11.8-2.7C102,60.1,102.2,60.1,102.3,60.1z M83.4,47.7
	c1.3,0,2.7,0,4,0c0.9,0,0.9,0,0.9-0.8c0-0.2,0-0.4,0-0.6c0-1.3,0-2.6-0.4-3.8c-0.8-2.3-3-3.6-5.4-3c-2.2,0.6-3.3,2.1-3.7,4.2
	c-0.2,1.2-0.1,2.4-0.1,3.6c0,0.3,0.1,0.4,0.4,0.4C80.4,47.7,81.9,47.7,83.4,47.7z"/>
<path class="st1" d="M112.1,52.5c0-3.1,0-6.2,0-9.2c0-0.4-0.1-0.5-0.5-0.4c-1.8,0-3.5,0-5.3,0c-0.3,0-0.4-0.1-0.4-0.4
	c0-4.2,0-8.3,0-12.5c0-0.3,0.1-0.4,0.4-0.4c1.7,0,3.5,0,5.2,0c0.4,0,0.5-0.1,0.5-0.5c0-2.9,0-5.9,0-8.8c0-0.3,0.1-0.4,0.4-0.6
	c3-1.1,6-2.1,9-3.2c3.2-1.1,6.3-2.3,9.5-3.4c0.5-0.2,0.5-0.2,0.5,0.4c0,5.2,0,10.5,0,15.7c0,0.4,0.1,0.5,0.5,0.5c2.6,0,5.3,0,7.9,0
	c0.4,0,0.5,0.1,0.5,0.5c0,4.1,0,8.2,0,12.3c0,0.4-0.1,0.4-0.5,0.4c-2.6,0-5.3,0-7.9,0c-0.4,0-0.5,0.1-0.5,0.4c0,4.1,0.1,8.2,0,12.3
	c-0.1,3.2,2.1,4.7,4.8,4.6c1.3-0.1,2.5-0.4,3.6-0.9c0.4-0.2,0.4-0.1,0.4,0.3c0,4.2,0,8.3,0,12.5c0,0.2,0.1,0.4-0.2,0.5
	c-2.4,0.8-4.8,1.5-7.3,1.9c-2.5,0.5-5,0.7-7.5,0.5c-3.2-0.2-6.2-1.1-8.7-3.2c-2.1-1.7-3.3-4-3.9-6.6c-0.4-1.7-0.6-3.3-0.5-5
	C112.1,57.6,112.1,55,112.1,52.5z"/>
<path class="st0" d="M27.4,50.9c0-1.9,0.4-4.3,1.6-6.4c0.4-0.7,0.8-1.2,1.4-1.7c1.3-1,2.8-0.9,4,0.2c0.9,0.9,1.5,2,1.9,3.2
	c1.1,3.4,1.1,6.9,0,10.3c-0.4,1.2-1,2.4-1.9,3.3c-1.4,1.3-3,1.3-4.4,0c-0.9-0.9-1.5-2-1.9-3.2C27.7,55,27.4,53.2,27.4,50.9z"/>
<path class="st0" d="M83.6,117.3c-0.1,2.2-0.7,4.1-2.2,5.7c-1.2,1.2-2.6,1.8-4.3,1.7c-1-0.1-2-0.5-2.8-1.1c-1.5-1.2-2.3-2.7-2.7-4.5
	c-0.1-0.7-0.2-1.4-0.2-2.1c0.3-2.6,1.2-4.8,3.6-6.2c1.9-1.1,4.5-0.7,6.1,0.9C82.9,113,83.6,115,83.6,117.3z"/>
<path class="st0" d="M83.4,47.7c-1.5,0-3,0-4.4,0c-0.3,0-0.4-0.1-0.4-0.4c0-1.2-0.1-2.4,0.1-3.6c0.4-2.1,1.6-3.7,3.7-4.2
	c2.4-0.6,4.6,0.7,5.4,3c0.4,1.2,0.4,2.5,0.4,3.8c0,0.2,0,0.4,0,0.6c0,0.8,0,0.8-0.9,0.8C86.1,47.7,84.7,47.7,83.4,47.7z"/>
</svg>
