<svg xmlns="http://www.w3.org/2000/svg" xmlns:xlink="http://www.w3.org/1999/xlink" viewBox="0 0 437 146"><defs><style>.cls-1{isolation:isolate;}.cls-2{fill:#358f74;}.cls-3,.cls-5{fill:#fff;}.cls-4{mix-blend-mode:multiply;}.cls-5{opacity:0;}.cls-6{fill:#fefefe;opacity:0.01;}.cls-7{fill:#fdfdfe;opacity:0.03;}.cls-8{fill:#fcfcfd;opacity:0.04;}.cls-9{fill:#fbfcfc;opacity:0.05;}.cls-10{fill:#fafbfb;opacity:0.06;}.cls-11{fill:#f9fafb;opacity:0.08;}.cls-12{fill:#f8f9fa;opacity:0.09;}.cls-13{fill:#f7f8f9;opacity:0.1;}.cls-14{fill:#f6f7f9;opacity:0.11;}.cls-15{fill:#f5f6f8;opacity:0.13;}.cls-16{fill:#f4f6f7;opacity:0.14;}.cls-17{fill:#f3f5f6;opacity:0.15;}.cls-18{fill:#f2f4f6;opacity:0.16;}.cls-19{fill:#f1f3f5;opacity:0.18;}.cls-20{fill:#f0f2f4;opacity:0.19;}.cls-21{fill:#eff1f4;opacity:0.2;}.cls-22{fill:#eef0f3;opacity:0.21;}.cls-23{fill:#edeff2;opacity:0.23;}.cls-24{fill:#eceff1;opacity:0.24;}.cls-25{fill:#ebeef1;opacity:0.25;}.cls-26{fill:#eaedf0;opacity:0.26;}.cls-27{fill:#e9ecef;opacity:0.28;}.cls-28{fill:#e8ebef;opacity:0.29;}.cls-29{fill:#e7eaee;opacity:0.3;}.cls-30{fill:#e6e9ed;opacity:0.31;}.cls-31{fill:#e5e9ec;opacity:0.33;}.cls-32{fill:#e4e8ec;opacity:0.34;}.cls-33{fill:#e3e7eb;opacity:0.35;}.cls-34{fill:#e2e6ea;opacity:0.36;}.cls-35{fill:#e1e5ea;opacity:0.38;}.cls-36{fill:#e0e4e9;opacity:0.39;}.cls-37{fill:#dfe3e8;opacity:0.4;}.cls-38{fill:#dee3e7;opacity:0.41;}.cls-39{fill:#dde2e7;opacity:0.43;}.cls-40{fill:#dce1e6;opacity:0.44;}.cls-41{fill:#dbe0e5;opacity:0.45;}.cls-42{fill:#dadfe5;opacity:0.46;}.cls-43{fill:#d9dee4;opacity:0.48;}.cls-44,.cls-45{fill:#d8dde3;}.cls-44{opacity:0.49;}.cls-45{opacity:0.5;}.cls-46{fill:#d7dce2;opacity:0.51;}.cls-47{fill:#d6dbe1;opacity:0.52;}.cls-48{fill:#d5dae0;opacity:0.54;}.cls-49{fill:#d4d9e0;opacity:0.55;}.cls-50{fill:#d3d8df;opacity:0.56;}.cls-51{fill:#d2d7de;opacity:0.57;}.cls-52{fill:#d1d6de;opacity:0.59;}.cls-53{fill:#d0d6dd;opacity:0.6;}.cls-54{fill:#cfd5dc;opacity:0.61;}.cls-55{fill:#ced4db;opacity:0.62;}.cls-56{fill:#cdd3db;opacity:0.64;}.cls-57{fill:#ccd2da;opacity:0.65;}.cls-58{fill:#cbd1d9;opacity:0.66;}.cls-59{fill:#cad0d9;opacity:0.67;}.cls-60{fill:#c9d0d8;opacity:0.69;}.cls-61{fill:#c8cfd7;opacity:0.7;}.cls-62{fill:#c7ced6;opacity:0.71;}.cls-63{fill:#c6cdd6;opacity:0.72;}.cls-64{fill:#c5ccd5;opacity:0.74;}.cls-65{fill:#c4cbd4;opacity:0.75;}.cls-66{fill:#c3cad4;opacity:0.76;}.cls-67{fill:#c2cad3;opacity:0.77;}.cls-68{fill:#c1c9d2;opacity:0.79;}.cls-69{fill:#c0c8d1;opacity:0.8;}.cls-70{fill:#bfc7d1;opacity:0.81;}.cls-71{fill:#bec6d0;opacity:0.82;}.cls-72{fill:#bdc5cf;opacity:0.84;}.cls-73{fill:#bcc4cf;opacity:0.85;}.cls-74{fill:#bbc3ce;opacity:0.86;}.cls-75{fill:#bac3cd;opacity:0.87;}.cls-76{fill:#b9c2cc;opacity:0.89;}.cls-77{fill:#b8c1cc;opacity:0.9;}.cls-78{fill:#b7c0cb;opacity:0.91;}.cls-79{fill:#b6bfca;opacity:0.92;}.cls-80{fill:#b5beca;opacity:0.94;}.cls-81{fill:#b4bdc9;opacity:0.95;}.cls-82{fill:#b3bdc8;opacity:0.96;}.cls-83{fill:#b2bcc7;opacity:0.97;}.cls-84{fill:#b1bbc7;opacity:0.99;}.cls-85{fill:#b0bac6;}.cls-86{fill:#e6e6e6;}.cls-87{fill:url(#radial-gradient);}.cls-88{fill:#ffe418;}</style><radialGradient id="radial-gradient" cx="357.87" cy="8.94" r="141.93" gradientUnits="userSpaceOnUse"><stop offset="0" stop-color="#65fb7e"></stop><stop offset="1" stop-color="#049e22"></stop></radialGradient></defs><g class="cls-1"><g id="Layer_1" data-name="Layer 1"><path class="cls-2" d="M317.11,102.32l-14.84,29.24H17.38A13.41,13.41,0,0,1,4,118.15V21.1A13.41,13.41,0,0,1,17.38,7.69H350.91A13.41,13.41,0,0,1,364.32,21.1v97.05C364.32,125.56,324.51,102.32,317.11,102.32Z"></path><path class="cls-3" d="M40.56,34.83l1-7.79h8v7.79Zm3.71,10V27h9.47V44.85Z"></path><path class="cls-3" d="M76.93,57.53a20.58,20.58,0,0,1-9.45-2,14.06,14.06,0,0,1-6.14-6.14,22.39,22.39,0,0,1-2.17-10.49V27h9.42V38.73a18.38,18.38,0,0,0,1,6.61,6.86,6.86,0,0,0,2.78,3.56A8.48,8.48,0,0,0,76.73,50h0a9,9,0,0,0,4.45-1.11A6.67,6.67,0,0,0,84,45.37a18,18,0,0,0,1-6.54V27H94.4V38.93a22.73,22.73,0,0,1-2.12,10.46,13.75,13.75,0,0,1-6,6.09A20.2,20.2,0,0,1,77,57.53ZM65.88,45.2l-.49-6.27A7.75,7.75,0,0,0,70,38.21a4.2,4.2,0,0,0,1.8-2.86,25.27,25.27,0,0,0,.4-4.86V27h9.42v3a26.62,26.62,0,0,1-.71,6.36,11.64,11.64,0,0,1-2.45,4.86,10.67,10.67,0,0,1-4.78,3A22.56,22.56,0,0,1,65.88,45.2Z"></path><path class="cls-3" d="M97.12,57.09l1.18-7.8a24.36,24.36,0,0,1,1.31-5A11.45,11.45,0,0,1,102.54,40a12,12,0,0,1,5.68-2.74l2.71,6.07A3,3,0,0,0,109,44.7a7.08,7.08,0,0,0-.86,2.42c-.17.92-.33,1.86-.49,2.81l-1.14,7.16Zm21.81,0q-2.18-3.75-4.07-6.86t-3.88-6q-2-2.88-4.49-5.94-.84-1-2.07-2.64l-2.54-3.31-2.42-3.13c-.74-1-1.33-1.68-1.75-2.17h11.64c.66.79,1.39,1.75,2.2,2.88s1.57,2.23,2.29,3.28,1.27,1.88,1.63,2.47q2.37,3.7,4.79,7.21t4.86,7q2.44,3.48,4.81,7.23Zm-.2-12L116.06,39a3.66,3.66,0,0,0,2.27-1.43,6.63,6.63,0,0,0,1-2.45c.18-.93.32-1.85.42-2.73l.69-5.38h9.42l-.64,6a16.28,16.28,0,0,1-1.31,5,11.86,11.86,0,0,1-3.25,4.31A14.09,14.09,0,0,1,118.73,45.1Z"></path><path class="cls-3" d="M146.07,57.09V38.39a3.56,3.56,0,0,0-.92-2.67,3.43,3.43,0,0,0-2.49-.89h-10l1-7.79h9.48q6.16,0,9.3,2.81t3.13,8.39V57.09Z"></path><path class="cls-3" d="M173.3,34.83l1-7.79h9v7.79ZM177,66V27h9.47V65.48Z"></path><path class="cls-3" d="M191.17,57.09v-7.8h9.27a4.36,4.36,0,0,0,3.9-1.83,8.8,8.8,0,0,0,1.24-5,10.59,10.59,0,0,0-1.24-5.6,4.25,4.25,0,0,0-3.9-2h-9.27l1-7.79h8.29q7.22,0,11,4.07t3.78,11.32q0,6.91-3.78,10.78t-11,3.88Z"></path><path class="cls-3" d="M218.16,34.83l1-7.79h9v7.79Zm3.7,22.26V27h9.48V57.09Z"></path><path class="cls-3" d="M252.21,57.53q-7.54,0-11.38-3.53T237,44.26v-.4a11.63,11.63,0,0,1,1.31-5.8,6,6,0,0,1,3.33-2.93v-.74l7.7,0v.49a2.3,2.3,0,0,0-2.3,1.78,15.88,15.88,0,0,0-.61,5,12,12,0,0,0,1.33,6.17A4.77,4.77,0,0,0,252.21,50a4.62,4.62,0,0,0,4.37-2.32,13.27,13.27,0,0,0,1.3-6.46,9.38,9.38,0,0,0-1-4.69q-1-1.68-3.9-1.68H236L237,27h16q7.35,0,10.83,3.75t3.48,10.51q0,7.65-3.8,11.94T252.21,57.53Z"></path><g class="cls-4"><path class="cls-5" d="M405.31,28.59A67.11,67.11,0,0,0,297.5,105.35l-7.1,37.9L327.71,136a67.1,67.1,0,0,0,77.6-107.4Z"></path><path class="cls-6" d="M405.31,28.51A67.11,67.11,0,0,0,297.5,105.27l-7.1,37.9,37.31-7.26a67.1,67.1,0,0,0,77.6-107.4Z"></path><path class="cls-7" d="M405.31,28.43A67.11,67.11,0,0,0,297.5,105.19l-7.1,37.9,37.31-7.26a67.1,67.1,0,0,0,77.6-107.4Z"></path><path class="cls-8" d="M405.31,28.35A67.11,67.11,0,0,0,297.5,105.11L290.4,143l37.31-7.26a67.1,67.1,0,0,0,77.6-107.4Z"></path><path class="cls-9" d="M405.31,28.27A67.11,67.11,0,0,0,297.5,105l-7.1,37.9,37.31-7.26a67.1,67.1,0,0,0,77.6-107.4Z"></path><path class="cls-10" d="M405.31,28.19A67.1,67.1,0,0,0,290.77,75.64,67.33,67.33,0,0,0,297.5,105l-7.1,37.89,37.31-7.26a67.1,67.1,0,0,0,77.6-107.4Z"></path><path class="cls-11" d="M405.31,28.11A67.1,67.1,0,0,0,290.77,75.56a67.33,67.33,0,0,0,6.73,29.32l-7.1,37.89,37.31-7.26a67.1,67.1,0,0,0,77.6-107.4Z"></path><path class="cls-12" d="M405.31,28A67.1,67.1,0,0,0,290.77,75.48a67.33,67.33,0,0,0,6.73,29.32l-7.1,37.9,37.31-7.27A67.1,67.1,0,0,0,405.31,28Z"></path><path class="cls-13" d="M405.31,28A67.1,67.1,0,0,0,290.77,75.4a67.33,67.33,0,0,0,6.73,29.32l-7.1,37.9,37.31-7.27A67.1,67.1,0,0,0,405.31,28Z"></path><path class="cls-14" d="M405.31,27.87A67.1,67.1,0,0,0,290.77,75.32a67.33,67.33,0,0,0,6.73,29.32l-7.1,37.9,37.31-7.26a67.11,67.11,0,0,0,77.6-107.41Z"></path><path class="cls-15" d="M405.31,27.79A67.1,67.1,0,0,0,290.77,75.24a67.33,67.33,0,0,0,6.73,29.32l-7.1,37.9,37.31-7.26a67.11,67.11,0,0,0,77.6-107.41Z"></path><path class="cls-16" d="M405.31,27.71A67.1,67.1,0,0,0,290.77,75.16a67.33,67.33,0,0,0,6.73,29.32l-7.1,37.9,37.31-7.26a67.11,67.11,0,0,0,77.6-107.41Z"></path><path class="cls-17" d="M405.31,27.63A67.1,67.1,0,0,0,290.77,75.08a67.33,67.33,0,0,0,6.73,29.32l-7.1,37.9L327.71,135a67.11,67.11,0,0,0,77.6-107.41Z"></path><path class="cls-18" d="M405.31,27.56A67.1,67.1,0,0,0,290.77,75a67.33,67.33,0,0,0,6.73,29.32l-7.1,37.9L327.71,135a67.1,67.1,0,0,0,77.6-107.4Z"></path><path class="cls-19" d="M405.31,27.48A67.1,67.1,0,0,0,290.77,74.92a67.33,67.33,0,0,0,6.73,29.32l-7.1,37.9,37.31-7.26a67.1,67.1,0,0,0,77.6-107.4Z"></path><path class="cls-20" d="M405.31,27.4A67.1,67.1,0,0,0,290.77,74.84a67.33,67.33,0,0,0,6.73,29.32l-7.1,37.9,37.31-7.26a67.1,67.1,0,0,0,77.6-107.4Z"></path><path class="cls-21" d="M405.31,27.32A67.1,67.1,0,0,0,290.77,74.76a67.3,67.3,0,0,0,6.73,29.32L290.4,142l37.31-7.26a67.1,67.1,0,0,0,77.6-107.4Z"></path><path class="cls-22" d="M405.31,27.24A67.1,67.1,0,0,0,290.77,74.68,67.3,67.3,0,0,0,297.5,104l-7.1,37.9,37.31-7.26a67.1,67.1,0,0,0,77.6-107.4Z"></path><path class="cls-23" d="M405.31,27.16A67.1,67.1,0,0,0,290.77,74.6a67.3,67.3,0,0,0,6.73,29.32l-7.1,37.9,37.31-7.26a67.1,67.1,0,0,0,77.6-107.4Z"></path><path class="cls-24" d="M405.31,27.08A67.1,67.1,0,0,0,290.77,74.52a67.3,67.3,0,0,0,6.73,29.32l-7.1,37.9,37.31-7.26a67.1,67.1,0,0,0,77.6-107.4Z"></path><path class="cls-25" d="M405.31,27A67.1,67.1,0,0,0,290.77,74.44a67.3,67.3,0,0,0,6.73,29.32l-7.1,37.9,37.31-7.26A67.1,67.1,0,0,0,405.31,27Z"></path><path class="cls-26" d="M405.31,26.92A67.11,67.11,0,0,0,297.5,103.68l-7.1,37.9,37.31-7.26a67.1,67.1,0,0,0,77.6-107.4Z"></path><path class="cls-27" d="M405.31,26.84A67.11,67.11,0,0,0,297.5,103.6l-7.1,37.9,37.31-7.26a67.1,67.1,0,0,0,77.6-107.4Z"></path><path class="cls-28" d="M405.31,26.76A67.11,67.11,0,0,0,297.5,103.52l-7.1,37.9,37.31-7.26a67.1,67.1,0,0,0,77.6-107.4Z"></path><path class="cls-29" d="M405.31,26.68A67.11,67.11,0,0,0,297.5,103.44l-7.1,37.9,37.31-7.26a67.1,67.1,0,0,0,77.6-107.4Z"></path><path class="cls-30" d="M405.31,26.6A67.11,67.11,0,0,0,297.5,103.36l-7.1,37.9L327.71,134a67.1,67.1,0,0,0,77.6-107.4Z"></path><path class="cls-31" d="M405.31,26.52A67.11,67.11,0,0,0,297.5,103.28l-7.1,37.9,37.31-7.26a67.1,67.1,0,0,0,77.6-107.4Z"></path><path class="cls-32" d="M405.31,26.44A67.11,67.11,0,0,0,297.5,103.2l-7.1,37.9,37.31-7.26a67.1,67.1,0,0,0,77.6-107.4Z"></path><path class="cls-33" d="M405.31,26.36A67.11,67.11,0,0,0,297.5,103.12L290.4,141l37.31-7.26a67.1,67.1,0,0,0,77.6-107.4Z"></path><path class="cls-34" d="M405.31,26.28A67.11,67.11,0,0,0,297.5,103l-7.1,37.9,37.31-7.26a67.1,67.1,0,0,0,77.6-107.4Z"></path><path class="cls-35" d="M405.31,26.2A67.11,67.11,0,0,0,297.5,103l-7.1,37.9,37.31-7.26a67.1,67.1,0,0,0,77.6-107.4Z"></path><path class="cls-36" d="M405.31,26.12A67.1,67.1,0,0,0,290.77,73.57a67.33,67.33,0,0,0,6.73,29.32l-7.1,37.89,37.31-7.26a67.1,67.1,0,0,0,77.6-107.4Z"></path><path class="cls-37" d="M405.31,26A67.1,67.1,0,0,0,290.77,73.49a67.33,67.33,0,0,0,6.73,29.32l-7.1,37.9,37.31-7.27A67.1,67.1,0,0,0,405.31,26Z"></path><path class="cls-38" d="M405.31,26A67.1,67.1,0,0,0,290.77,73.41a67.33,67.33,0,0,0,6.73,29.32l-7.1,37.9,37.31-7.27A67.1,67.1,0,0,0,405.31,26Z"></path><path class="cls-39" d="M405.31,25.88A67.1,67.1,0,0,0,290.77,73.33a67.33,67.33,0,0,0,6.73,29.32l-7.1,37.9,37.31-7.26a67.11,67.11,0,0,0,77.6-107.41Z"></path><path class="cls-40" d="M405.31,25.8A67.1,67.1,0,0,0,290.77,73.25a67.33,67.33,0,0,0,6.73,29.32l-7.1,37.9,37.31-7.26A67.11,67.11,0,0,0,405.31,25.8Z"></path><path class="cls-41" d="M405.31,25.72A67.1,67.1,0,0,0,290.77,73.17a67.33,67.33,0,0,0,6.73,29.32l-7.1,37.9,37.31-7.26a67.11,67.11,0,0,0,77.6-107.41Z"></path><path class="cls-42" d="M405.31,25.64A67.1,67.1,0,0,0,290.77,73.09a67.33,67.33,0,0,0,6.73,29.32l-7.1,37.9,37.31-7.26a67.11,67.11,0,0,0,77.6-107.41Z"></path><path class="cls-43" d="M405.31,25.57A67.1,67.1,0,0,0,290.77,73a67.33,67.33,0,0,0,6.73,29.32l-7.1,37.9L327.71,133a67.1,67.1,0,0,0,77.6-107.4Z"></path><path class="cls-44" d="M405.31,25.49A67.1,67.1,0,0,0,290.77,72.93a67.33,67.33,0,0,0,6.73,29.32l-7.1,37.9,37.31-7.26a67.1,67.1,0,0,0,77.6-107.4Z"></path><path class="cls-45" d="M405.31,25.41A67.1,67.1,0,0,0,290.77,72.85a67.33,67.33,0,0,0,6.73,29.32l-7.1,37.9,37.31-7.26a67.1,67.1,0,0,0,77.6-107.4Z"></path><path class="cls-46" d="M405.31,25.33A67.1,67.1,0,0,0,290.77,72.77a67.33,67.33,0,0,0,6.73,29.32L290.4,140l37.31-7.26a67.1,67.1,0,0,0,77.6-107.4Z"></path><path class="cls-47" d="M405.31,25.25A67.1,67.1,0,0,0,290.77,72.69,67.3,67.3,0,0,0,297.5,102l-7.1,37.9,37.31-7.26a67.1,67.1,0,0,0,77.6-107.4Z"></path><path class="cls-48" d="M405.31,25.17A67.1,67.1,0,0,0,290.77,72.61a67.3,67.3,0,0,0,6.73,29.32l-7.1,37.9,37.31-7.26a67.1,67.1,0,0,0,77.6-107.4Z"></path><path class="cls-49" d="M405.31,25.09A67.1,67.1,0,0,0,290.77,72.53a67.3,67.3,0,0,0,6.73,29.32l-7.1,37.9,37.31-7.26a67.1,67.1,0,0,0,77.6-107.4Z"></path><path class="cls-50" d="M405.31,25A67.1,67.1,0,0,0,290.77,72.45a67.3,67.3,0,0,0,6.73,29.32l-7.1,37.9,37.31-7.26A67.1,67.1,0,0,0,405.31,25Z"></path><path class="cls-51" d="M405.31,24.93A67.1,67.1,0,0,0,290.77,72.37a67.3,67.3,0,0,0,6.73,29.32l-7.1,37.9,37.31-7.26a67.1,67.1,0,0,0,77.6-107.4Z"></path><path class="cls-52" d="M405.31,24.85A67.11,67.11,0,0,0,297.5,101.61l-7.1,37.9,37.31-7.26a67.1,67.1,0,0,0,77.6-107.4Z"></path><path class="cls-53" d="M405.31,24.77A67.11,67.11,0,0,0,297.5,101.53l-7.1,37.9,37.31-7.26a67.1,67.1,0,0,0,77.6-107.4Z"></path><path class="cls-54" d="M405.31,24.69A67.11,67.11,0,0,0,297.5,101.45l-7.1,37.9,37.31-7.26a67.1,67.1,0,0,0,77.6-107.4Z"></path><path class="cls-55" d="M405.31,24.61A67.11,67.11,0,0,0,297.5,101.37l-7.1,37.9L327.71,132a67.1,67.1,0,0,0,77.6-107.4Z"></path><path class="cls-56" d="M405.31,24.53A67.11,67.11,0,0,0,297.5,101.29l-7.1,37.9,37.31-7.26a67.1,67.1,0,0,0,77.6-107.4Z"></path><path class="cls-57" d="M405.31,24.45A67.11,67.11,0,0,0,297.5,101.21l-7.1,37.9,37.31-7.26a67.1,67.1,0,0,0,77.6-107.4Z"></path><path class="cls-58" d="M405.31,24.37A67.11,67.11,0,0,0,297.5,101.13L290.4,139l37.31-7.26a67.1,67.1,0,0,0,77.6-107.4Z"></path><path class="cls-59" d="M405.31,24.29A67.11,67.11,0,0,0,297.5,101.05L290.4,139l37.31-7.26a67.1,67.1,0,0,0,77.6-107.4Z"></path><path class="cls-60" d="M405.31,24.21A67.11,67.11,0,0,0,297.5,101l-7.1,37.9,37.31-7.26a67.1,67.1,0,0,0,77.6-107.4Z"></path><path class="cls-61" d="M405.31,24.13A67.1,67.1,0,0,0,290.77,71.58a67.33,67.33,0,0,0,6.73,29.32l-7.1,37.89,37.31-7.26a67.1,67.1,0,0,0,77.6-107.4Z"></path><path class="cls-62" d="M405.31,24.05A67.1,67.1,0,0,0,290.77,71.5a67.33,67.33,0,0,0,6.73,29.32l-7.1,37.89,37.31-7.26a67.1,67.1,0,0,0,77.6-107.4Z"></path><path class="cls-63" d="M405.31,24A67.1,67.1,0,0,0,290.77,71.42a67.33,67.33,0,0,0,6.73,29.32l-7.1,37.9,37.31-7.27A67.1,67.1,0,0,0,405.31,24Z"></path><path class="cls-64" d="M405.31,23.89A67.1,67.1,0,0,0,290.77,71.34a67.33,67.33,0,0,0,6.73,29.32l-7.1,37.9,37.31-7.27a67.1,67.1,0,0,0,77.6-107.4Z"></path><path class="cls-65" d="M405.31,23.81A67.1,67.1,0,0,0,290.77,71.26a67.33,67.33,0,0,0,6.73,29.32l-7.1,37.9,37.31-7.26a67.11,67.11,0,0,0,77.6-107.41Z"></path><path class="cls-66" d="M405.31,23.73A67.1,67.1,0,0,0,290.77,71.18a67.33,67.33,0,0,0,6.73,29.32l-7.1,37.9,37.31-7.26a67.11,67.11,0,0,0,77.6-107.41Z"></path><path class="cls-67" d="M405.31,23.65A67.1,67.1,0,0,0,290.77,71.1a67.33,67.33,0,0,0,6.73,29.32l-7.1,37.9,37.31-7.26a67.11,67.11,0,0,0,77.6-107.41Z"></path><path class="cls-68" d="M405.31,23.57A67.1,67.1,0,0,0,290.77,71a67.33,67.33,0,0,0,6.73,29.32l-7.1,37.9L327.71,131a67.11,67.11,0,0,0,77.6-107.41Z"></path><path class="cls-69" d="M405.31,23.5A67.1,67.1,0,0,0,290.77,70.94a67.33,67.33,0,0,0,6.73,29.32l-7.1,37.9,37.31-7.26a67.1,67.1,0,0,0,77.6-107.4Z"></path><path class="cls-70" d="M405.31,23.42A67.1,67.1,0,0,0,290.77,70.86a67.33,67.33,0,0,0,6.73,29.32l-7.1,37.9,37.31-7.26a67.1,67.1,0,0,0,77.6-107.4Z"></path><path class="cls-71" d="M405.31,23.34A67.1,67.1,0,0,0,290.77,70.78a67.33,67.33,0,0,0,6.73,29.32L290.4,138l37.31-7.26a67.1,67.1,0,0,0,77.6-107.4Z"></path><path class="cls-72" d="M405.31,23.26A67.1,67.1,0,0,0,290.77,70.7,67.3,67.3,0,0,0,297.5,100l-7.1,37.9,37.31-7.26a67.1,67.1,0,0,0,77.6-107.4Z"></path><path class="cls-73" d="M405.31,23.18A67.1,67.1,0,0,0,290.77,70.62a67.3,67.3,0,0,0,6.73,29.32l-7.1,37.9,37.31-7.26a67.1,67.1,0,0,0,77.6-107.4Z"></path><path class="cls-74" d="M405.31,23.1A67.1,67.1,0,0,0,290.77,70.54a67.3,67.3,0,0,0,6.73,29.32l-7.1,37.9,37.31-7.26a67.1,67.1,0,0,0,77.6-107.4Z"></path><path class="cls-75" d="M405.31,23A67.1,67.1,0,0,0,290.77,70.46a67.3,67.3,0,0,0,6.73,29.32l-7.1,37.9,37.31-7.26A67.1,67.1,0,0,0,405.31,23Z"></path><path class="cls-76" d="M405.31,22.94A67.1,67.1,0,0,0,290.77,70.38,67.3,67.3,0,0,0,297.5,99.7l-7.1,37.9,37.31-7.26a67.1,67.1,0,0,0,77.6-107.4Z"></path><path class="cls-77" d="M405.31,22.86A67.11,67.11,0,0,0,297.5,99.62l-7.1,37.9,37.31-7.26a67.1,67.1,0,0,0,77.6-107.4Z"></path><path class="cls-78" d="M405.31,22.78A67.11,67.11,0,0,0,297.5,99.54l-7.1,37.9,37.31-7.26a67.1,67.1,0,0,0,77.6-107.4Z"></path><path class="cls-79" d="M405.31,22.7A67.11,67.11,0,0,0,297.5,99.46l-7.1,37.9,37.31-7.26a67.1,67.1,0,0,0,77.6-107.4Z"></path><path class="cls-80" d="M405.31,22.62A67.11,67.11,0,0,0,297.5,99.38l-7.1,37.9L327.71,130a67.1,67.1,0,0,0,77.6-107.4Z"></path><path class="cls-81" d="M405.31,22.54A67.11,67.11,0,0,0,297.5,99.3l-7.1,37.9,37.31-7.26a67.1,67.1,0,0,0,77.6-107.4Z"></path><path class="cls-82" d="M405.31,22.46A67.11,67.11,0,0,0,297.5,99.22l-7.1,37.9,37.31-7.26a67.1,67.1,0,0,0,77.6-107.4Z"></path><path class="cls-83" d="M405.31,22.38A67.11,67.11,0,0,0,297.5,99.14L290.4,137l37.31-7.26a67.1,67.1,0,0,0,77.6-107.4Z"></path><path class="cls-84" d="M405.31,22.3A67.11,67.11,0,0,0,297.5,99.06L290.4,137l37.31-7.26a67.1,67.1,0,0,0,77.6-107.4Z"></path><path class="cls-85" d="M405.31,22.22A67.11,67.11,0,0,0,297.5,99l-7.1,37.9,37.31-7.26a67.1,67.1,0,0,0,77.6-107.4Z"></path></g><path class="cls-86" d="M405.71,21.82A67.67,67.67,0,0,0,290.2,69.67a68,68,0,0,0,6.71,29.39l-7.22,38.54,37.94-7.38a68,68,0,0,0,30.24,7.12A67.67,67.67,0,0,0,405.71,21.82Z"></path><path class="cls-3" d="M405.31,22.22A67.11,67.11,0,0,0,297.5,99l-7.1,37.9,37.31-7.26a67.1,67.1,0,0,0,77.6-107.4Z"></path><path class="cls-87" d="M357.87,11.67A58,58,0,0,0,307,97.59h0l-5.2,27.82,27.35-5.32h0a58,58,0,1,0,28.72-108.4Z"></path><path class="cls-3" d="M395,49.2c-.54-4.62-1.89-9.88-6.21-12.29-4.14-2.31-10-2.86-13.09,1.49-2.92,4.18-10.28,11-5.29,16.24l3.27,3.43s3.85,2.38-1.46,8.43c0,0-6.75,7.09-10,10h0C359.1,79.62,351.68,86,351.68,86c-6.31,5-8.49,1-8.49,1l-3.26-3.43c-4.94-5.19-12.2,1.78-16.49,4.46s-4.13,8.53-2.35,12.7c2,4.66,7.59,6.35,12.16,7.12,13.18,2.22,39.07-20.71,39.07-20.71h0S396.54,62.47,395,49.2Z"></path><path class="cls-88" d="M165.55,104.58c3.9,0,5.94-1.33,5.94-4.08s-2.13-4.18-6.17-4.18a34.67,34.67,0,0,0-5.29.44v-9.1a41.45,41.45,0,0,0,4.66.26c4.18,0,6.3-1.28,6.3-4.16s-1.91-4.15-5.89-4.15a34.25,34.25,0,0,0-9.85,2V72.11a38.7,38.7,0,0,1,12.95-1.86c11,0,17.34,4.87,17.34,12.5,0,4.65-3,8.07-8.16,9.22,5.76,1.19,8.72,4.48,8.72,9.53,0,7.9-6.47,12.52-18.79,12.52a52.05,52.05,0,0,1-12.41-1.61v-9.76a44,44,0,0,0,10.65,1.93Zm46-18.8c8.68,0,14.42,5.46,14.42,13.49,0,8.64-6.6,14.64-17,14.64-12.23,0-20.09-7.86-20.09-20.75,0-14.68,8.33-22.93,23.36-22.93a48.91,48.91,0,0,1,10.2,1.15v9.53a30.3,30.3,0,0,0-9.72-1.48c-6.65,0-9.72,2.75-9.9,9,2.47-2,5.16-2.62,8.71-2.66ZM212.7,99c0-3.47-1.91-5.72-4.7-5.72s-4.66,2.17-4.66,5.72,1.86,5.63,4.66,5.63S212.7,102.45,212.7,99Zm17.56-27.7h28.35v9.94H243.49v6.3c1.24,0,2-.13,2.32-.13,9.35,0,14.42,4.88,14.42,13.08C260.23,109,254.06,114,242,114a48.63,48.63,0,0,1-12.52-1.73v-9.48a32.57,32.57,0,0,0,8.38,1.32c4.87,0,7.45-1.69,7.45-4.79,0-3.46-2.66-5.2-8.16-5.2a29.3,29.3,0,0,0-7,1l.09-23.82Z"></path><path class="cls-3" d="M49.05,68H63.43V85.69a9.82,9.82,0,0,1,8.64-4.22c8.38,0,13.08,6,13.08,16.63,0,10.16-4.79,16.2-12.74,16.2-4.87,0-8.12-1.82-10-5.76v5.33H49.05ZM63,97.8c0,4.65,1,6.91,3.56,6.91s3.63-2.26,3.63-6.91-1.06-6.91-3.63-6.91S63,93.18,63,97.8Zm58.91,3H102c.35,3.43,2.93,5,7.8,5a28.49,28.49,0,0,0,10.29-2v8A35.39,35.39,0,0,1,106.87,114C94.59,114,88,108,88,97.39c0-10.33,6.48-16.55,17.31-16.55,12,0,16.67,5.72,16.67,17.87l0,2.05Zm-12.52-6.1v-1c0-3.55-1.28-5.58-3.72-5.58s-3.82,2-3.82,5.67v.89Zm40.93-13v9.19h-6.69v7.53c0,3.86.58,5.68,3.46,5.68a13.19,13.19,0,0,0,3.06-.44v9a31.23,31.23,0,0,1-9.53,1.32c-4.07,0-7.15-1.32-9-3.59-2.36-3-2.4-6.82-2.4-11.85V90.89H124.1V81.71h5.12v-7l14.37-4.61V81.71l6.74,0Z"></path></g></g></svg>